<svg width="98" height="47" viewBox="0 0 98 47" fill="none" xmlns="http://www.w3.org/2000/svg">
<g clip-path="url(#clip0_61_4721)">
<path d="M60.3886 20.5025L50.1027 8.75362C49.88 8.52463 49.4407 8.42082 49.1998 8.42082H48.8703C48.6293 8.42082 48.1901 8.52463 47.9521 8.76889L37.6144 20.4811C37.4252 20.6948 37.3764 20.9666 37.4832 21.2078C37.6266 21.5314 38.197 21.5253 38.7156 21.5253H40.799C41.2809 21.5253 41.7019 21.3665 41.9215 21.0978C42.2388 20.7192 42.5652 20.3437 42.8915 19.9712L42.9098 19.9498C43.2057 19.6079 43.5047 19.2659 43.7945 18.9239L46.5612 15.7303L48.9832 12.9152L52.0946 16.5027H52.0915L54.7515 19.5834L56.0814 21.1039C56.3224 21.3848 56.6976 21.5253 57.2009 21.5253H59.2844C59.8029 21.5253 60.3703 21.5497 60.5137 21.2261C60.6235 20.9879 60.5747 20.7162 60.3886 20.5025Z" fill="#71C062"/>
<path d="M68.1214 20.8872L50.1546 0.268684C50.0113 0.122129 49.5842 0 49.3463 0H48.8735C48.6355 0 48.2115 0.122129 48.0682 0.268684L29.8817 20.8872C29.598 21.2047 29.9763 21.5253 30.687 21.5253H33.6703C34.2377 21.5253 34.6159 21.3299 34.7593 21.1558C35.2168 20.6093 39.3349 15.9562 39.8046 15.4158C40.3049 14.8387 40.8082 14.2647 41.2963 13.6815H41.3085L45.0605 9.34289L48.9223 4.85159H49.1602L53.0525 9.34289L53.0555 9.34594L54.9834 11.5687H54.9742L57.8111 14.854L63.2408 21.1497C63.4299 21.3696 63.7624 21.5192 64.3298 21.5192H67.3131C68.0238 21.5253 68.4051 21.2078 68.1214 20.8872Z" fill="#1E7DC1"/>
<path d="M3.64827 34.0161H0.381299C0.161671 34.0161 0 33.8359 0 33.6344V32.5108C0 32.3093 0.161671 32.1292 0.381299 32.1292H9.00476C9.22439 32.1292 9.38606 32.3093 9.38606 32.5108V33.6344C9.38606 33.8359 9.22439 34.0161 9.00476 34.0161H5.73474V45.7985C5.73474 46 5.55477 46.1801 5.35344 46.1801H4.02957C3.82824 46.1801 3.64827 46 3.64827 45.7985V34.0161Z" fill="#1E7DC1"/>
<path d="M14.9591 32.5108C14.9591 32.3093 15.1208 32.1292 15.3404 32.1292H20.7945C23.2013 32.1292 25.1657 34.0374 25.1657 36.4251C25.1657 38.2723 23.9425 39.7958 22.1977 40.5011L24.9461 45.6C25.0864 45.8596 24.9461 46.1832 24.6045 46.1832H23.0396C22.8779 46.1832 22.759 46.0824 22.7193 46.0031L20.0533 40.6843H17.0242V45.7985C17.0242 46 16.8443 46.1801 16.6429 46.1801H15.3404C15.1208 46.1801 14.9591 46 14.9591 45.7985V32.5108ZM20.6359 38.9531C21.9384 38.9531 23.0823 37.8479 23.0823 36.4648C23.0823 35.161 21.9384 34.0771 20.6359 34.0771H17.0669V38.9562H20.6359V38.9531Z" fill="#1E7DC1"/>
<path d="M30.3209 32.5108C30.3209 32.3093 30.5009 32.1292 30.7022 32.1292H32.0474C32.2671 32.1292 32.4287 32.3093 32.4287 32.5108V40.8003C32.4287 42.8063 33.713 44.3726 35.7567 44.3726C37.8218 44.3726 39.1244 42.8277 39.1244 40.84V32.5108C39.1244 32.3093 39.286 32.1292 39.5057 32.1292H40.8478C41.0492 32.1292 41.2291 32.3093 41.2291 32.5108V40.9408C41.2291 43.991 38.923 46.3817 35.7537 46.3817C32.6057 46.3817 30.3179 43.994 30.3179 40.9408V32.5108H30.3209Z" fill="#1E7DC1"/>
<path d="M45.521 45.658L51.6767 32.1505C51.7377 32.0315 51.9177 31.9307 52.0184 31.9307H52.2197C52.3203 31.9307 52.5003 32.0315 52.5613 32.1505L58.6774 45.658C58.7963 45.9176 58.6377 46.1801 58.3357 46.1801H57.0729C56.8319 46.1801 56.6916 46.0611 56.6122 45.8779L55.3677 43.1269H48.8093C48.4097 44.049 47.9857 44.9527 47.5861 45.8779C47.5251 46.0183 47.3665 46.1801 47.1255 46.1801H45.8627C45.5607 46.1801 45.399 45.9176 45.521 45.658ZM54.6051 41.4018L52.1373 35.903H52.0367L49.5902 41.4018H54.6051Z" fill="#1E7DC1"/>
<path d="M63.2865 32.5108C63.2865 32.3093 63.4482 32.1292 63.6678 32.1292H64.9917C65.193 32.1292 65.373 32.3093 65.373 32.5108V44.3146H70.8088C71.0284 44.3146 71.1901 44.4948 71.1901 44.6963V45.7985C71.1901 46 71.0284 46.1801 70.8088 46.1801H63.6708C63.4512 46.1801 63.2895 46 63.2895 45.7985V32.5108H63.2865Z" fill="#1E7DC1"/>
<path d="M76.9431 34.0161H73.673C73.4534 34.0161 73.2917 33.8359 73.2917 33.6344V32.5108C73.2917 32.3093 73.4534 32.1292 73.673 32.1292H82.2965C82.5161 32.1292 82.6778 32.3093 82.6778 32.5108V33.6344C82.6778 33.8359 82.5161 34.0161 82.2965 34.0161H79.0265V45.7985C79.0265 46 78.8465 46.1801 78.6452 46.1801H77.3213C77.12 46.1801 76.94 46 76.94 45.7985V34.0161H76.9431Z" fill="#1E7DC1"/>
<path d="M84.804 45.658L90.9596 32.1505C91.0207 32.0315 91.2006 31.9307 91.3013 31.9307H91.5026C91.6033 31.9307 91.7833 32.0315 91.8443 32.1505L97.9603 45.658C98.0793 45.9176 97.9206 46.1801 97.6187 46.1801H96.3558C96.1148 46.1801 95.9745 46.0611 95.8952 45.8779L94.6506 43.1269H88.0923C87.6927 44.049 87.2687 44.9527 86.8691 45.8779C86.8081 46.0183 86.6494 46.1801 86.4085 46.1801H85.1456C84.8436 46.1801 84.685 45.9176 84.804 45.658ZM93.888 41.4018L91.4203 35.903H91.3196L88.8732 41.4018H93.888Z" fill="#1E7DC1"/>
</g>
<defs>
<clipPath id="clip0_61_4721">
<rect width="98" height="46.3786" fill="white"/>
</clipPath>
</defs>
</svg>
